#!OML:ASF I:\Actors\actors\Patient Classification 1\Patient 1\Session 1\Subject1.ASF
:FULLY-SPECIFIED
:DEGREES
1107
root 1.09252 17.4716 9.18898 7.28811 -0.341104 -6.64469
lowerback -1.52162 1.08666 9.08868
upperback -6.42625 1.67534 1.00705
thorax -5.67425 0.393999 -4.07974
lowerneck -12.5777 0.732451 0.300554
upperneck 27.2776 -0.807618 6.28514
head 10.8946 0.42741 2.12065
rclavicle 1.33124e-014 -7.7526e-015
rhumerus -76.4613 26.972 -94.8923
rradius 122.41
rwrist -13.4536
rhand 71.1357 -65.0644
rfingers 7.12502
rthumb 73.1613 -353.527
lclavicle 1.33124e-014 -7.7526e-015
lhumerus -25.5618 39.7678 76.9888
lradius 114.083
lwrist 60.7282
lhand -28.8773 5.61896
lfingers 7.12502
lthumb -2.23322 35.587
rfemur -2.99543 24.2084 22.119
rtibia 5.23273
rfoot -14.7732 -27.2799
rtoes 3.89691
lfemur 6.76467 -41.2428 -17.3605
ltibia -5.10028
lfoot -17.2833 49.3218
ltoes 10.4181
1108
root 1.09088 17.4716 9.18667 7.26166 -0.287331 -6.57996
lowerback -1.48147 1.04486 8.95827
upperback -6.36438 1.61825 1.01887
thorax -5.63937 0.376081 -3.99368
lowerneck -12.5949 0.718268 0.465026
upperneck 27.2061 -0.797216 6.04338
head 10.8699 0.418708 2.00391
rclavicle 1.19457e-014 1.5207e-014
rhumerus -76.361 26.9821 -94.7989
rradius 122.384
rwrist -13.5222
rhand 71.1558 -65.1901
rfingers 7.12502
rthumb 73.1523 -353.594
lclavicle 1.19457e-014 1.5207e-014
lhumerus -25.4962 39.7576 77.0634
lradius 114.082
lwrist 60.8165
lhand -28.8551 5.56071
lfingers 7.12502
lthumb -2.21177 35.529
rfemur -2.99939 24.162 22.0538
rtibia 5.27978
rfoot -14.8059 -27.2628
rtoes 4.049
lfemur 6.70791 -41.1588 -17.3916
ltibia -5.05488
lfoot -17.1856 49.1912
ltoes 10.3895
1109
root 1.08854 17.4709 9.18585 7.23208 -0.253817 -6.57324
lowerback -1.47051 1.03225 8.8808
upperback -6.289 1.59763 1.04374
thorax -5.56824 0.375825 -3.92358
lowerneck -12.7 0.67533 0.442715
upperneck 27.2235 -0.851105 6.02146
head 10.8992 0.390852 1.9943
rclavicle 4.7522e-015 -3.91606e-014
rhumerus -76.314 26.9366 -94.7455
rradius 122.396
rwrist -13.4816
rhand 71.1077 -65.2722
rfingers 7.12502
rthumb 73.1737 -353.818
lclavicle 4.7522e-015 -3.91606e-014
lhumerus -25.3888 39.6922 77.2008
lradius 114.058
lwrist 60.9387
lhand -28.817 5.73438
lfingers 7.12502
lthumb -2.17496 35.703
rfemur -2.98058 24.1454 22.0651
rtibia 5.31082
rfoot -14.8476 -27.2502
rtoes 4.29024
lfemur 6.72603 -41.1571 -17.4004
ltibia -5.04618
lfoot -17.1901 49.155
ltoes 10.5716
1110
root 1.0873 17.4706 9.18594 7.21337 -0.245748 -6.6091
lowerback -1.46158 1.02962 8.89041
upperback -6.21851 1.59141 1.05593
thorax -5.49861 0.377657 -3.91566
lowerneck -12.9232 0.628293 0.247623
upperneck 27.3753 -0.948924 6.24899
head 11.0059 0.359512 2.10435
rclavicle 1.63687e-014 -8.05078e-015
rhumerus -76.3107 26.9155 -94.7411
rradius 122.424
rwrist -13.4252
rhand 71.0514 -65.2809
rfingers 7.12502
rthumb 73.1988 -353.994
lclavicle 1.63687e-014 -8.05078e-015
lhumerus -25.2915 39.5982 77.2925
lradius 114.046
lwrist 61.0525
lhand -28.7757 6.02862
lfingers 7.12502
lthumb -2.13508 35.9977
rfemur -2.96118 24.141 22.1223
rtibia 5.32782
rfoot -14.8636 -27.2529
rtoes 4.23916
lfemur 6.76701 -41.1761 -17.3816
ltibia -5.05199
lfoot -17.2364 49.1643
ltoes 10.663
1111
root 1.0876 17.4707 9.18526 7.21183 -0.252339 -6.62504
lowerback -1.427 1.01197 8.90153
upperback -6.16735 1.56902 1.06451
thorax -5.46659 0.369053 -3.91262
lowerneck -13.1477 0.598438 -0.000566743
upperneck 27.5644 -1.02632 6.5313
head 11.1273 0.339439 2.24793
rclavicle 1.07965e-014 -4.28381e-014
rhumerus -76.3089 26.9997 -94.7435
rradius 122.428
rwrist -13.4227
rhand 71.0594 -65.1968
rfingers 7.12502
rthumb 73.1952 -353.886
lclavicle 1.07965e-014 -4.28381e-014
lhumerus -25.2245 39.5797 77.3597
lradius 114.053
lwrist 61.0251
lhand -28.8226 6.18741
lfingers 7.12502
lthumb -2.18039 36.156
rfemur -2.97333 24.1218 22.1363
rtibia 5.33971
rfoot -14.8364 -27.2409
rtoes 4.13697
lfemur 6.7642 -41.2135 -17.3787
ltibia -5.02816
lfoot -17.1936 49.2254
ltoes 10.4722
1112
root 1.08706 17.4704 9.18368 7.21782 -0.254212 -6.6322
lowerback -1.38051 0.985662 8.8877
upperback -6.1239 1.53681 1.08194
thorax -5.45135 0.356111 -3.88644
lowerneck -13.3589 0.572696 -0.113762
upperneck 27.7516 -1.07974 6.63285
head 11.2442 0.322135 2.3053
rclavicle 1.45299e-014 -3.03147e-014
rhumerus -76.2722 27.1343 -94.7399
rradius 122.428
rwrist -13.4107
rhand 71.0453 -65.1739
rfingers 7.12502
rthumb 73.2015 -353.905
lclavicle 1.45299e-014 -3.03147e-014
lhumerus -25.1942 39.6134 77.4023
lradius 114.062
lwrist 60.8989
lhand -28.9794 6.01343
lfingers 7.12502
lthumb -2.3318 35.9804
rfemur -2.99053 24.1413 22.1429
rtibia 5.34714
rfoot -14.8421 -27.2603
rtoes 4.22956
lfemur 6.72907 -41.2131 -17.3503
ltibia -5.01325
lfoot -17.0437 49.2551
ltoes 10.2345
1113
root 1.086 17.4707 9.18161 7.23962 -0.259822 -6.64056
lowerback -1.34862 0.960714 8.86882
upperback -6.08972 1.50534 1.1013
thorax -5.43764 0.343504 -3.85519
lowerneck -13.4864 0.558401 -0.0488163
upperneck 27.8419 -1.09249 6.51801
head 11.3044 0.312389 2.25377
rclavicle -1.58344e-014 -1.04362e-014
rhumerus -76.1926 27.2639 -94.6982
rradius 122.441
rwrist -13.419
rhand 71.022 -65.3342
rfingers 7.12502
rthumb 73.2118 -354.135
lclavicle -1.58344e-014 -1.04362e-014
lhumerus -25.2295 39.6678 77.3795
lradius 114.081
lwrist 60.7905
lhand -29.1296 5.72061
lfingers 7.12502
lthumb -2.4769 35.686
rfemur -3.02861 24.1238 22.1418
rtibia 5.35523
rfoot -14.8233 -27.24
rtoes 4.21325
lfemur 6.68654 -41.1766 -17.2962
ltibia -5.01994
lfoot -17.0941 49.1957
ltoes 10.4053
1114
root 1.08617 17.4725 9.17954 7.2658 -0.28312 -6.61562
lowerback -1.31873 0.931479 8.8325
upperback -6.06096 1.46713 1.10359
thorax -5.42914 0.32751 -3.83195
lowerneck -13.4689 0.564782 0.0912589
upperneck 27.7641 -1.06407 6.34056
head 11.2688 0.316192 2.16541
rclavicle 1.52691e-014 4.59193e-014
rhumerus -76.0835 27.3757 -94.6421
rradius 122.469
rwrist -13.4308
rhand 71.1112 -65.4423
rfingers 7.12502
rthumb 73.1722 -353.978
lclavicle 1.52691e-014 4.59193e-014
lhumerus -25.2661 39.762 77.3606
lradius 114.068
lwrist 60.6171
lhand -29.1647 5.58577
lfingers 7.12502
lthumb -2.51081 35.5507
rfemur -3.08252 24.0704 22.0857
rtibia 5.36544
rfoot -14.7856 -27.1651
rtoes 4.21602
lfemur 6.62434 -41.1129 -17.2819
ltibia -5.00907
lfoot -17.1131 49.149
ltoes 10.5667
1115
root 1.08656 17.4745 9.1775 7.27425 -0.307837 -6.61865
lowerback -1.26475 0.905197 8.84301
upperback -6.03703 1.43627 1.09534
thorax -5.43824 0.311665 -3.84651
lowerneck -13.4168 0.556261 0.124281
upperneck 27.6539 -1.06656 6.30037
head 11.216 0.310459 2.14101
rclavicle 1.91889e-014 7.30534e-015
rhumerus -75.9846 27.4284 -94.6147
rradius 122.494
rwrist -13.4081
rhand 71.2536 -65.5274
rfingers 7.12502
rthumb 73.1083 -353.643
lclavicle 1.91889e-014 7.30534e-015
lhumerus -25.3308 39.8185 77.3298
lradius 114.057
lwrist 60.4785
lhand -29.1475 5.51349
lfingers 7.12502
lthumb -2.49419 35.4787
rfemur -3.12445 24.0431 22.0731
rtibia 5.39475
rfoot -14.7583 -27.1273
rtoes 4.12248
lfemur 6.56986 -41.0441 -17.2406
ltibia -5.00864
lfoot -16.9544 49.1668
ltoes 10.3933
1116
root 1.08647 17.4755 9.17523 7.28404 -0.333306 -6.66391
lowerback -1.2228 0.893352 8.9047
upperback -6.02108 1.4252 1.09382
thorax -5.44645 0.303159 -3.88281
lowerneck -13.3465 0.522657 0.00188039
upperneck 27.5603 -1.1083 6.40918
head 11.1684 0.288934 2.19337
rclavicle -6.1499e-015 3.50855e-014
rhumerus -75.9199 27.4353 -94.6005
rradius 122.487
rwrist -13.3846
rhand 71.3273 -65.4563
rfingers 7.12502
rthumb 73.0748 -353.356
lclavicle -6.1499e-015 3.50855e-014
lhumerus -25.4987 39.8189 77.2237
lradius 114.113
lwrist 60.5321
lhand -29.1733 5.40682
lfingers 7.12502
lthumb -2.51911 35.3717
rfemur -3.17406 24.0298 22.1136
rtibia 5.43189
rfoot -14.7098 -27.1101
rtoes 3.85999
lfemur 6.53558 -41.028 -17.1604
ltibia -5.0105
lfoot -16.9281 49.1884
ltoes 10.2897
1117
root 1.08607 17.4755 9.17309 7.30021 -0.373758 -6.68245
lowerback -1.19572 0.871704 8.92046
upperback -6.00034 1.39853 1.10103
thorax -5.4434 0.290014 -3.88362
lowerneck -13.2476 0.511303 -0.0458818
upperneck 27.456 -1.11054 6.42887
head 11.1088 0.281576 2.20471
rclavicle 1.1455e-014 -1.61016e-014
rhumerus -75.892 27.4917 -94.6156
rradius 122.473
rwrist -13.419
rhand 71.2603 -65.2848
rfingers 7.12502
rthumb 73.1052 -353.381
lclavicle 1.1455e-014 -1.61016e-014
lhumerus -25.6808 39.8823 77.072
lradius 114.144
lwrist 60.7211
lhand -29.0964 5.44398
lfingers 7.12502
lthumb -2.44478 35.4097
rfemur -3.22188 24.0712 22.1217
rtibia 5.45729
rfoot -14.7141 -27.1028
rtoes 3.92556
lfemur 6.53 -41.0695 -17.1366
ltibia -5.0045
lfoot -17.0611 49.2156
ltoes 10.4486
1118
root 1.0859 17.4753 9.16998 7.31127 -0.422999 -6.66476
lowerback -1.1334 0.839242 8.88329
upperback -5.98225 1.36032 1.10595
thorax -5.46499 0.27252 -3.85768
lowerneck -13.1485 0.508686 -0.0156165
upperneck 27.3485 -1.09038 6.34457
head 11.0466 0.279774 2.1673
rclavicle 2.13694e-015 1.83379e-014
rhumerus -75.8961 27.5613 -94.6484
rradius 122.454
rwrist -13.498
rhand 71.1023 -65.2862
rfingers 7.12502
rthumb 73.1761 -353.848
lclavicle 2.13694e-015 1.83379e-014
lhumerus -25.8578 39.9647 76.9125
lradius 114.119
lwrist 60.8669
lhand -28.8706 5.79776
lfingers 7.12502
lthumb -2.22678 35.7659
rfemur -3.27482 24.107 22.0821
rtibia 5.49386
rfoot -14.7444 -27.0736
rtoes 4.08722
lfemur 6.51422 -41.0761 -17.1463
ltibia -4.99108
lfoot -17.2357 49.2035
ltoes 10.602
1119
root 1.086 17.4753 9.16596 7.30757 -0.461994 -6.65852
lowerback -1.03688 0.823539 8.87445
upperback -5.95204 1.3482 1.11177
thorax -5.48964 0.266871 -3.84784
lowerneck -13.0976 0.472395 -0.0677225
upperneck 27.2255 -1.11086 6.30654
head 10.9901 0.25713 2.15593
rclavicle -2.85691e-014 2.43511e-015
rhumerus -75.8797 27.5751 -94.6286
rradius 122.406
rwrist -13.5412
rhand 71.0422 -65.2871
rfingers 7.12502
rthumb 73.2028 -354.027
lclavicle -2.85691e-014 2.43511e-015
lhumerus -26.0114 39.9846 76.8311
lradius 114.1
lwrist 60.8408
lhand -28.768 6.13953
lfingers 7.12502
lthumb -2.12764 36.1087
rfemur -3.32333 24.0985 22.0585
rtibia 5.5377
rfoot -14.725 -27.0236
rtoes 4.07103
lfemur 6.45191 -40.9258 -17.0998
ltibia -4.97417
lfoot -17.189 49.0907
ltoes 10.5571
